<mxfile host="app.diagrams.net" modified="2024-06-27T12:29:29.202Z" agent="Mozilla/5.0 (Macintosh; Intel Mac OS X 10.15; rv:127.0) Gecko/20100101 Firefox/127.0" version="24.5.2" etag="V3OLXHCkD1K_gNfSmp4L" type="github">
  <diagram name="Page-1" id="vY9h-OzDkCHO7YO65GYP">
    <mxGraphModel>
      <root>
        <mxCell id="0" />
        <mxCell id="1" parent="0" />
      </root>
    </mxGraphModel>
  </diagram>
</mxfile>
